# Blender v2.74 (sub 0) OBJ File: 'laser.blend'
# www.blender.org
mtllib laser.mtl
o ModelLaserBlock
v -16.000000 32.000000 -15.999999
v -16.000000 -0.000001 16.000000
v -16.000000 0.000001 -16.000000
v -16.000000 32.000000 16.000002
v 14.000000 30.000000 -14.999999
v 14.000000 30.000000 -15.999999
v 14.000000 1.999999 16.000000
v 14.000000 1.999999 15.000000
v 14.000000 2.000001 -15.000000
v 14.000000 2.000001 -16.000000
v 14.000000 30.000000 16.000002
v 14.000000 30.000000 15.000001
v 5.000000 10.999999 13.000001
v 5.000000 10.999999 11.000001
v 5.000000 21.000000 11.000001
v 5.000000 21.000000 13.000001
v 4.000000 11.999999 15.000001
v 4.000000 11.999999 13.000001
v 4.000000 11.999999 11.000001
v 4.000000 20.000000 -7.999999
v 4.000000 12.000000 -8.000000
v 4.000000 20.000000 11.000001
v 4.000000 20.000000 13.000001
v 4.000000 20.000000 15.000001
v -8.000000 20.000000 -14.999999
v -8.000000 20.000000 -15.999999
v -8.000000 27.000000 -14.999999
v -8.000000 27.000000 -15.999999
v 16.000000 32.000000 -15.999999
v 16.000000 -0.000001 16.000000
v 16.000000 0.000001 -16.000000
v 16.000000 32.000000 16.000002
v -14.000000 30.000000 -15.999999
v -14.000000 30.000000 -14.999999
v -14.000000 1.999999 16.000000
v -14.000000 1.999999 15.000000
v -14.000000 2.000001 -15.000000
v -14.000000 2.000001 -16.000000
v -14.000000 30.000000 15.000001
v -14.000000 30.000000 16.000002
v -5.000000 10.999999 13.000001
v -5.000000 10.999999 11.000001
v -5.000000 21.000000 11.000001
v -5.000000 21.000000 13.000001
v -4.000000 11.999999 15.000001
v -4.000000 11.999999 13.000001
v -4.000000 11.999999 11.000001
v -4.000000 20.000000 -7.999999
v -4.000000 12.000000 -8.000000
v -4.000000 20.000000 11.000001
v -4.000000 20.000000 13.000001
v -4.000000 20.000000 15.000001
v 8.000000 20.000000 -14.999999
v 8.000000 20.000000 -15.999999
v 8.000000 27.000000 -15.999999
v 8.000000 27.000000 -14.999999
v 13.000000 32.000000 16.000002
v 8.000000 32.000000 16.000002
v 13.000000 30.000000 16.000002
v 8.000000 30.000000 16.000002
v 3.000000 30.000000 15.000001
v -3.000000 30.000000 15.000001
v 3.000000 20.000000 11.000001
v 3.000000 21.000000 11.000001
v -1.000000 20.000000 11.000001
v -1.000000 21.000000 11.000001
v 3.000000 20.000000 15.000001
v -3.000000 20.000000 15.000001
v -12.000000 32.000000 -15.999999
v -13.000000 32.000000 -15.999999
v -12.000000 30.000000 -15.999999
v -13.000000 30.000000 -15.999999
v 0.000000 20.000000 13.000001
v 0.000000 21.000000 13.000001
v -2.000000 20.000000 13.000001
v -2.000000 21.000000 13.000001
v -8.000000 30.000000 -14.999999
v 8.000000 30.000000 -14.999999
vt 0.499992 0.499997
vt 0.000000 0.499997
vt 0.000000 0.000000
vt 0.515617 0.562497
vt 0.515617 0.999994
vt 0.499992 0.999994
vt 0.531242 0.562497
vt 0.499992 0.562497
vt 0.499992 0.437497
vt 0.531242 0.437497
vt 0.562491 0.437497
vt 0.562491 0.593746
vt 0.656240 0.890620
vt 0.531242 0.890620
vt 0.531242 0.593746
vt 0.531241 0.812495
vt 0.531241 0.921870
vt 0.515617 0.921870
vt 0.531264 0.593746
vt 0.656262 0.593756
vt 0.000000 0.999994
vt 0.031250 0.968744
vt 0.124998 0.499997
vt 0.124998 0.531247
vt 0.046874 0.531247
vt 0.765613 0.437497
vt 0.671865 0.437497
vt 0.671865 0.281248
vt 0.687490 0.578121
vt 0.687490 0.593746
vt 0.624990 0.593746
vt 0.718739 0.437497
vt 0.578116 0.453122
vt 0.703114 0.453122
vt 0.703114 0.578121
vt 0.499992 0.000000
vt 0.937486 0.000000
vt 0.781238 0.156249
vt 0.468743 0.968744
vt 0.468743 0.531247
vt -0.000000 0.953119
vt -0.000000 0.937494
vt 0.031249 0.937494
vt 0.609366 0.437497
vt 0.640615 0.437497
vt 0.640615 0.453122
vt 0.718739 0.593746
vt 0.031250 0.624996
vt 0.078124 0.624996
vt 0.078124 0.874995
vt 0.187497 0.874995
vt 0.187497 0.624996
vt 0.499992 0.968744
vt 0.515617 0.656246
vt 0.499992 0.734371
vt 0.531242 0.531247
vt 0.562491 0.515622
vt 0.562491 0.546872
vt 0.546867 0.593746
vt 0.609366 0.593746
vt 0.531242 0.453122
vt 0.515617 0.812495
vt 0.374994 0.000000
vt 0.062499 0.499997
vt 0.656240 0.593746
vt 0.046874 0.499997
vt 0.031250 0.531247
vt 0.765613 0.281248
vt 0.624990 0.578121
vt 0.578116 0.578121
vt 0.656240 0.281248
vt 0.781238 0.281248
vt 0.937486 0.437497
vt 0.656240 0.156249
vt 0.031249 0.953119
vt 0.609366 0.453122
vt 0.031250 0.874995
vt 0.499992 0.984369
vt 0.515617 0.906245
vt 0.499992 0.828120
vt 0.515617 0.578122
vt 0.531242 0.468747
vt 0.531242 0.546872
vt 0.499992 0.531247
vt 0.453118 0.000000
vn -1.000000 0.000000 0.000000
vn 1.000000 0.000000 0.000000
vn 0.000000 -0.000000 1.000000
vn 0.000000 0.000000 -1.000000
vn 0.000000 -1.000000 -0.000000
vn 0.000000 1.000000 0.000000
usemtl palette
s 1
f 3/1/1 2/2/1 4/3/1
f 6/4/1 10/5/1 9/6/1
f 12/4/1 8/5/1 7/6/1
f 18/7/1 17/8/1 24/9/1
f 16/10/1 15/11/1 14/12/1
f 20/13/1 21/14/1 19/15/1
f 28/16/1 26/17/1 25/18/1
f 29/1/2 32/2/2 30/3/2
f 39/8/2 40/4/2 35/5/2
f 34/6/2 37/8/2 38/4/2
f 43/12/2 44/15/2 41/10/2
f 52/8/2 45/9/2 46/10/2
f 48/14/2 50/19/2 47/20/2
f 56/16/2 53/17/2 54/18/2
f 2/6/3 30/21/3 7/22/3
f 58/23/3 60/24/3 59/25/3
f 61/26/3 62/27/3 68/28/3
f 63/29/3 64/30/3 66/31/3
f 42/11/3 14/32/3 47/33/3
f 49/33/3 21/34/3 20/35/3
f 36/36/3 8/37/3 17/38/3
f 3/6/4 38/39/4 10/40/4
f 70/41/4 69/42/4 71/43/4
f 76/44/4 74/45/4 73/46/4
f 18/35/4 13/47/4 41/12/4
f 78/48/4 56/49/4 27/50/4
f 25/51/4 53/52/4 9/40/4
f 54/50/4 26/49/4 28/52/4
f 2/36/5 3/1/5 31/2/5
f 71/53/5 6/8/5 78/54/5
f 60/54/5 61/55/5 12/8/5
f 66/56/5 74/57/5 76/58/5
f 63/59/5 65/60/5 20/14/5
f 67/61/5 73/1/5 23/9/5
f 53/7/5 25/16/5 26/62/5
f 58/63/6 69/64/6 4/3/6
f 8/4/6 36/5/6 35/6/6
f 9/8/6 10/4/6 38/5/6
f 14/15/6 42/10/6 41/11/6
f 46/7/6 45/8/6 17/9/6
f 49/14/6 47/15/6 19/65/6
f 56/16/6 55/62/6 28/4/6
f 1/36/1 3/1/1 4/3/1
f 5/8/1 6/4/1 9/6/1
f 11/8/1 12/4/1 7/6/1
f 23/10/1 18/7/1 24/9/1
f 13/15/1 16/10/1 14/12/1
f 22/65/1 20/13/1 19/15/1
f 27/62/1 28/16/1 25/18/1
f 31/36/2 29/1/2 30/3/2
f 36/6/2 39/8/2 35/5/2
f 33/5/2 34/6/2 38/4/2
f 42/11/2 43/12/2 41/10/2
f 51/7/2 52/8/2 46/10/2
f 49/13/2 48/14/2 47/20/2
f 55/62/2 56/16/2 54/18/2
f 40/40/3 58/23/3 4/1/3
f 57/66/3 59/25/3 11/67/3
f 40/40/3 60/24/3 58/23/3
f 32/2/3 57/66/3 11/67/3
f 35/39/3 40/40/3 4/1/3
f 32/2/3 11/67/3 7/22/3
f 35/39/3 4/1/3 2/6/3
f 30/21/3 32/2/3 7/22/3
f 7/22/3 35/39/3 2/6/3
f 57/66/3 58/23/3 59/25/3
f 67/68/3 61/26/3 68/28/3
f 65/69/3 63/29/3 66/31/3
f 64/30/3 63/29/3 22/35/3
f 50/70/3 65/69/3 66/31/3
f 15/47/3 64/30/3 22/35/3
f 50/70/3 66/31/3 43/12/3
f 15/47/3 22/35/3 19/34/3
f 47/33/3 50/70/3 43/12/3
f 14/32/3 15/47/3 19/34/3
f 47/33/3 43/12/3 42/11/3
f 14/32/3 19/34/3 47/33/3
f 48/70/3 49/33/3 20/35/3
f 52/71/3 68/28/3 62/27/3
f 61/26/3 67/68/3 24/72/3
f 52/71/3 62/27/3 39/9/3
f 12/73/3 61/26/3 24/72/3
f 45/74/3 52/71/3 39/9/3
f 12/73/3 24/72/3 17/38/3
f 45/74/3 39/9/3 36/36/3
f 8/37/3 12/73/3 17/38/3
f 17/38/3 45/74/3 36/36/3
f 6/67/4 69/42/4 29/2/4
f 33/22/4 70/41/4 72/75/4
f 6/67/4 71/43/4 69/42/4
f 1/21/4 70/41/4 33/22/4
f 6/67/4 29/2/4 31/1/4
f 3/6/4 1/21/4 33/22/4
f 10/40/4 6/67/4 31/1/4
f 3/6/4 33/22/4 38/39/4
f 10/40/4 31/1/4 3/6/4
f 72/75/4 70/41/4 71/43/4
f 75/76/4 76/44/4 73/46/4
f 76/44/4 75/76/4 51/33/4
f 23/34/4 73/46/4 74/45/4
f 44/11/4 76/44/4 51/33/4
f 23/34/4 74/45/4 16/32/4
f 44/11/4 51/33/4 46/70/4
f 18/35/4 23/34/4 16/32/4
f 41/12/4 44/11/4 46/70/4
f 18/35/4 16/32/4 13/47/4
f 41/12/4 46/70/4 18/35/4
f 77/77/4 78/48/4 27/50/4
f 34/22/4 77/77/4 27/50/4
f 53/52/4 5/67/4 9/40/4
f 25/51/4 34/22/4 27/50/4
f 56/49/4 78/48/4 5/67/4
f 37/39/4 34/22/4 25/51/4
f 53/52/4 56/49/4 5/67/4
f 9/40/4 37/39/4 25/51/4
f 55/51/4 54/50/4 28/52/4
f 30/3/5 2/36/5 31/2/5
f 34/5/5 72/78/5 71/53/5
f 72/78/5 34/5/5 33/6/5
f 71/53/5 78/54/5 77/79/5
f 78/54/5 6/8/5 5/4/5
f 77/79/5 34/5/5 71/53/5
f 62/80/5 40/5/5 39/6/5
f 12/8/5 59/81/5 60/54/5
f 59/81/5 12/8/5 11/4/5
f 60/54/5 62/80/5 61/55/5
f 62/80/5 60/54/5 40/5/5
f 16/11/5 64/82/5 15/10/5
f 76/58/5 43/15/5 66/56/5
f 43/15/5 76/58/5 44/12/5
f 64/82/5 16/11/5 74/57/5
f 74/57/5 66/56/5 64/82/5
f 20/14/5 22/15/5 63/59/5
f 65/60/5 48/13/5 20/14/5
f 48/13/5 65/60/5 50/65/5
f 68/83/5 52/7/5 51/8/5
f 73/1/5 67/61/5 68/83/5
f 67/61/5 23/9/5 24/10/5
f 68/83/5 75/84/5 73/1/5
f 75/84/5 68/83/5 51/8/5
f 54/4/5 53/7/5 26/62/5
f 57/85/6 32/36/6 29/1/6
f 29/1/6 58/63/6 57/85/6
f 70/66/6 1/2/6 4/3/6
f 4/3/6 69/64/6 70/66/6
f 69/64/6 58/63/6 29/1/6
f 7/8/6 8/4/6 35/6/6
f 37/6/6 9/8/6 38/5/6
f 13/12/6 14/15/6 41/11/6
f 18/10/6 46/7/6 17/9/6
f 21/13/6 49/14/6 19/65/6
f 27/7/6 56/16/6 28/4/6
