# Blender v2.74 (sub 0) OBJ File: 'laser.blend'
# www.blender.org
mtllib lens.mtl
o Cube_Cube.001
v -5.000000 21.000000 11.000000
v -5.000000 11.000000 11.000000
v -5.000000 21.000000 13.000000
v -5.000000 11.000000 13.000000
v 5.000000 21.000000 11.000000
v 5.000000 11.000000 11.000000
v 5.000000 21.000000 13.000000
v 5.000000 11.000000 13.000000
v -5.000000 20.000000 11.000000
v -5.000000 12.000000 11.000000
v 4.000000 12.000000 11.000000
v 4.000000 20.000000 11.000000
v -4.000000 12.000000 11.000000
v -4.000000 20.000000 11.000000
v 4.000000 12.000000 12.000000
v -4.000000 20.000000 12.000000
v -4.000000 12.000000 12.000000
v 4.000000 20.000000 12.000000
v 5.000000 12.000000 13.000000
v 5.000000 20.000000 13.000000
v -4.000000 12.000000 13.000000
v -4.000000 20.000000 13.000000
v 4.000000 12.000000 13.000000
v 4.000000 20.000000 13.000000
vt 0.750000 0.562500
vt 0.625000 0.625000
vt 0.750000 0.062500
vt 0.750168 0.062499
vt 0.750000 0.000000
vt 0.750000 0.625000
vt 0.750168 0.624986
vt 0.625000 0.062500
vt 0.625000 0.562500
vt 0.562500 0.562500
vt -0.000000 -0.000000
vt 0.062500 0.062500
vt 0.062500 0.562500
vt 0.000000 0.625000
vt 0.812500 0.062500
vt 0.812500 0.562500
vt 0.562500 -0.000000
vt 0.562500 0.062500
vt 0.875000 0.562500
vt 0.562625 0.062499
vt 0.625000 -0.000000
vt 0.750168 0.000000
vt 0.062500 0.000000
vt 0.875000 0.062500
vt 0.562626 0.562487
vn -1.000000 0.000000 0.000000
vn 1.000000 0.000000 0.000000
vn 0.000000 1.000000 0.000000
vn 0.000000 -1.000000 0.000000
vn 0.000000 0.000000 -1.000000
vn 0.000000 0.000000 1.000000
usemtl None
s off
f 10/1/1 4/2/1 9/3/1
f 19/1/2 6/2/2 20/4/2
f 3/5/3 7/6/3 5/2/3
f 8/5/4 4/7/4 2/2/4
f 10/8/5 9/9/5 14/10/5
f 6/11/5 11/12/5 12/13/5
f 4/14/6 21/13/6 22/10/6
f 14/3/2 16/15/2 17/16/2
f 20/17/6 24/18/6 23/12/6
f 13/19/3 17/16/3 15/15/3
f 18/16/1 15/15/1 24/19/1
f 16/16/4 18/15/4 22/19/4
f 17/13/6 15/12/6 18/20/6
f 4/2/1 10/1/1 2/6/1
f 3/21/1 1/5/1 9/3/1
f 9/3/1 4/2/1 3/21/1
f 6/2/2 19/1/2 8/6/2
f 5/21/2 7/22/2 20/4/2
f 20/4/2 6/2/2 5/21/2
f 1/21/3 3/5/3 5/2/3
f 6/21/4 8/5/4 2/2/4
f 13/18/5 10/8/5 14/10/5
f 14/10/5 1/2/5 5/14/5
f 13/18/5 2/21/5 10/8/5
f 14/10/5 9/9/5 1/2/5
f 6/11/5 2/21/5 13/18/5
f 12/13/5 14/10/5 5/14/5
f 6/11/5 13/18/5 11/12/5
f 12/13/5 5/14/5 6/11/5
f 24/18/6 7/21/6 3/2/6
f 23/12/6 8/11/6 19/23/6
f 24/18/6 20/17/6 7/21/6
f 4/14/6 8/11/6 23/12/6
f 22/10/6 24/18/6 3/2/6
f 4/14/6 23/12/6 21/13/6
f 22/10/6 3/2/6 4/14/6
f 17/16/2 13/1/2 14/3/2
f 22/24/2 21/19/2 17/16/2
f 17/16/2 16/15/2 22/24/2
f 19/23/6 20/17/6 23/12/6
f 15/15/3 11/24/3 13/19/3
f 21/1/3 23/3/3 15/15/3
f 15/15/3 17/16/3 21/1/3
f 15/15/1 18/16/1 12/1/1
f 15/15/1 23/24/1 24/19/1
f 12/1/1 11/3/1 15/15/1
f 18/15/4 16/16/4 14/1/4
f 18/15/4 24/24/4 22/19/4
f 14/1/4 12/3/4 18/15/4
f 16/25/6 17/13/6 18/20/6
